<?xml version="1.0" encoding="UTF-8" standalone="no"?>
<svg
   xmlns:dc="http://purl.org/dc/elements/1.1/"
   xmlns:cc="http://creativecommons.org/ns#"
   xmlns:rdf="http://www.w3.org/1999/02/22-rdf-syntax-ns#"
   xmlns:svg="http://www.w3.org/2000/svg"
   xmlns="http://www.w3.org/2000/svg"
   height="58.486004"
   width="143.76353"
   version="1.1"
   viewBox="0 0 143.76354 58.486004"
   data-name="Layer 1"
   id="Layer_1">
  <metadata
     id="metadata881">
    <rdf:RDF>
      <cc:Work
         rdf:about="">
        <dc:format>image/svg+xml</dc:format>
        <dc:type
           rdf:resource="http://purl.org/dc/dcmitype/StillImage" />
        <dc:title>vans-logo</dc:title>
      </cc:Work>
    </rdf:RDF>
  </metadata>
  <defs
     id="defs870">
    <style
       id="style868">.cls-1{fill:#d51920}</style>
  </defs>
  <title
     id="title872">vans-logo</title>
  <path
     style="stroke-width:1"
     id="path874"
     d="M 6.0447877,51.441247 H 3.8718474 L 3.460096,46.777038 h 2.1764004 z m 131.6739523,0 h 2.1764 l 0.41521,-4.664209 h -2.1764 z M 2.1729403,46.777038 H 0 l 0.41521152,4.664209 H 2.5916119 Z M 141.17192,51.441247 h 2.1764 l 0.41521,-4.664209 h -2.1764 z M 17.051353,52.576159 a 2.9376215,2.9376215 0 0 1 -2.954922,3.051805 2.9895229,2.9895229 0 0 1 -2.972222,-3.086406 v -0.03114 c 0,-1.650466 1.179892,-3.051805 2.941081,-3.051805 a 2.992983,2.992983 0 0 1 2.989523,3.086406 v 0.03114 m -9.234996,0 c 0,3.280171 2.657354,5.909844 6.228173,5.909844 3.570819,0 6.280074,-2.660814 6.280074,-5.944445 v -0.03114 c 0,-3.283631 -2.657354,-5.909844 -6.228173,-5.909844 -3.570819,0 -6.280074,2.660814 -6.280074,5.944445 v 0.03114 m 14.532403,5.681478 h 3.22135 v -4.082914 h 5.491172 V 51.54505 h -5.498093 v -1.944574 h 6.079389 V 46.8324 H 22.3453 v 11.418316 z m 11.17611,0 h 3.22135 v -4.082914 h 5.498092 V 51.54505 H 36.74622 v -1.944574 h 6.079388 V 46.8324 H 33.52141 v 11.418316 z m 18.36965,0 h 3.221349 v -8.65024 h 3.487777 V 46.83932 H 48.403283 v 2.768077 h 3.498157 v 8.65024 z m 8.826705,0 h 3.221349 v -4.342421 h 4.152115 v 4.342421 h 3.22135 V 46.83932 h -3.22135 v 4.276678 h -4.152115 v -4.287059 h -3.221349 v 11.418317 z m 12.764294,0 h 9.435682 v -2.695415 h -6.252394 v -1.813091 h 5.581135 v -2.498189 h -5.581135 v -1.730048 h 6.162431 v -2.695415 h -9.342259 v 11.418317 z m 18.286607,0.08304 h 2.806138 l 2.325185,-6.574183 2.342485,6.574183 h 2.806136 l 3.88569,-11.51174 h -3.33899 l -2.02762,6.612244 -2.242142,-6.646844 h -2.768077 l -2.242142,6.646844 -2.027616,-6.612244 h -3.408195 z m 17.937134,-4.588087 1.31138,-3.249031 1.29408,3.249031 h -2.60892 z m -5.16592,4.498124 h 3.38743 l 0.83043,-2.041456 h 4.49812 l 0.84773,2.041456 h 3.46009 l -4.94794,-11.511739 h -3.11408 z m 14.5324,0 h 8.85439 V 55.48264 h -5.62266 V 46.8324 h -3.22135 v 11.418316 z m 10.64672,0 h 8.85438 V 55.48264 h -5.62265 V 46.8324 h -3.22135 v 11.418316 z" />
  <path
     style="fill:#d51920;stroke-width:1"
     id="path876"
     d="m 124.63266,18.072082 h -6.24894 c -0.60551,-1.536283 -1.28369,-2.730016 -4.78531,-2.730016 -2.42207,0 -3.46009,0.996508 -3.46009,1.996475 0,1.093391 0.86156,2.013776 3.52929,2.605453 l 5.66072,1.508601 c 3.70576,0.989588 5.50155,3.930669 5.50155,7.037836 0,1.730048 -0.37369,3.806105 -2.01377,5.536153 -1.22488,1.276776 -3.07949,2.961842 -9.22808,2.961842 -8.45647,0 -11.23493,-5.345848 -11.23493,-8.574117 h 6.57418 c 0.64704,2.359785 2.26637,3.25595 5.47041,3.25595 2.22139,0 4.1279,-0.792362 4.1279,-2.491269 0,-1.615865 -1.38404,-2.224842 -3.16599,-2.712715 l -4.4739,-1.207574 c -2.15564,-0.657418 -3.95835,-1.183353 -5.23167,-2.259443 -3.33207,-2.823438 -3.08986,-7.920159 0.53286,-10.570593 2.00685,-1.467081 4.06215,-2.231762 7.32502,-2.231762 3.83379,0 6.02403,1.09339 7.74715,2.283663 1.52937,1.038029 3.34592,3.59158 3.34592,5.605356 M 19.072049,0.01384038 C 19.123951,0.23874662 32.151212,36.690858 32.151212,36.690858 h 7.774836 L 51.90144,6.3458161 h 74.39206 l 0.564,-6.34235601 H 46.202662 L 36.265266,25.147978 27.334758,0 H 19.08935 m 64.298964,23.559794 9.709029,13.110304 h 6.075929 v -25.9265 H 92.176957 V 24.843489 L 83.388314,10.743598 h -6.712587 v 25.9265 h 6.712587 z M 127.10663,35.32412 a 1.3840384,1.3840384 0 1 0 -1.38404,1.384039 1.3840384,1.3840384 0 0 0 1.40134,-1.384039 z m -0.15917,0 a 1.2179538,1.2179538 0 1 1 -1.21449,-1.221414 1.2110336,1.2110336 0 0 1 1.23179,1.221414 z m -0.56053,-0.287188 a 0.49479373,0.49479373 0 0 0 -0.57438,-0.484413 h -0.6505 V 36.0196 h 0.32525 v -0.470573 h 0.25605 l 0.31141,0.470573 h 0.37715 l -0.34601,-0.525935 a 0.45673267,0.45673267 0 0 0 0.31833,-0.456733 z m -0.32871,0.0173 a 0.21452595,0.21452595 0 0 1 -0.24913,0.214526 h -0.32525 v -0.429052 h 0.31487 a 0.21798605,0.21798605 0 0 1 0.27681,0.217986 z m -79.692934,1.615865 h 7.456507 l 1.384039,-4.055233 h 9.871654 l 1.429019,4.055233 h 7.342324 l -9.397621,-25.9265 h -7.906319 z m 10.933904,-8.747123 2.88918,-8.619099 2.851119,8.619099 h -5.7576 z"
     class="cls-1" />
</svg>
